<svg viewBox="0 0 760 760" xmlns="http://www.w3.org/2000/svg">
  <defs>
    <style>
      text{font-family:'Noto Sans SC','Microsoft YaHei',Arial,sans-serif}.bg{fill:#FFFBF7}.phone{fill:#fff;stroke:#E0CDD0;stroke-width:2;rx:32}.bar{fill:#FFF0F3;stroke:#E0CDD0;rx:16}.petal{fill:#F48FA4}.mint{fill:#D4F0E0;stroke:#7DB89A;rx:14}.sky{fill:#D6E8FF;stroke:#7AADE0;rx:14}.dev{fill:#FFE8DD;stroke:#FF8F75;rx:14}.card{fill:#fff;stroke:#E0CDD0;rx:16}.label{fill:#2F2528;font-size:16px;font-weight:800}.small{fill:#5F5257;font-size:12px}.tiny{fill:#7A6B70;font-size:10px}
    </style>
  </defs>
  <rect width="760" height="760" class="bg"/>
  <text x="38" y="48" class="label">AI 首页线框</text>
  <text x="38" y="70" class="small">开发态图纸生成；真实视觉 Provider 和大模型生图未接入</text>
  <rect x="220" y="100" width="320" height="620" class="phone"/>
  <rect x="244" y="128" width="272" height="48" class="bar"/><circle cx="270" cy="152" r="13" class="petal"/><text x="380" y="158" text-anchor="middle" class="label">AI 创作</text><circle cx="490" cy="152" r="13" fill="#9EC9F5"/>
  <rect x="244" y="202" width="272" height="112" class="sky"/><text x="380" y="242" text-anchor="middle" class="small">上传图片生成拼豆图纸</text><text x="380" y="266" text-anchor="middle" class="tiny">开发态：不承诺真实识图质量</text><rect x="320" y="282" width="120" height="24" rx="12" fill="#fff"/><text x="380" y="299" text-anchor="middle" class="tiny">开始创作</text>
  <rect x="244" y="340" width="272" height="94" class="card"/><text x="264" y="366" class="small">正在生成</text><rect x="264" y="382" width="170" height="10" rx="5" class="mint"/><text x="264" y="414" class="tiny">job_123 · PROCESSING · 60%</text>
  <rect x="244" y="458" width="128" height="96" class="card"/><rect x="256" y="470" width="104" height="48" class="mint"/><text x="256" y="540" class="tiny">历史图纸</text>
  <rect x="388" y="458" width="128" height="96" class="card"/><rect x="400" y="470" width="104" height="48" class="dev"/><text x="400" y="540" class="tiny">失败重试</text>
  <rect x="244" y="576" width="272" height="68" class="dev"/><text x="380" y="604" text-anchor="middle" class="small">未来大模型生图</text><text x="380" y="626" text-anchor="middle" class="tiny">UI-only / 当前不接后端</text>
  <rect x="242" y="674" width="276" height="40" rx="20" fill="#FFFAF7" stroke="#E0CDD0"/>
  <circle cx="274" cy="690" r="4" fill="#7A6B70"/><text x="274" y="704" text-anchor="middle" class="tiny">社区</text>
  <circle cx="326" cy="690" r="4" fill="#7A6B70"/><text x="326" y="704" text-anchor="middle" class="tiny">商城</text>
  <rect x="356" y="680" width="48" height="28" rx="14" fill="#FFE0E6"/><circle cx="380" cy="690" r="4" class="petal"/><text x="380" y="704" text-anchor="middle" class="tiny">AI</text><rect x="368" y="709" width="24" height="3" rx="2" class="petal"/>
  <circle cx="434" cy="690" r="4" fill="#7A6B70"/><text x="434" y="704" text-anchor="middle" class="tiny">消息</text>
  <circle cx="486" cy="690" r="4" fill="#7A6B70"/><text x="486" y="704" text-anchor="middle" class="tiny">我的</text>
</svg>
