<svg viewBox="0 0 1180 720" xmlns="http://www.w3.org/2000/svg">
  <defs>
    <pattern id="grid" width="40" height="40" patternUnits="userSpaceOnUse">
      <path d="M 40 0 L 0 0 0 40" fill="none" stroke="#1e293b" stroke-width="0.6"/>
    </pattern>
    <marker id="arrow" markerWidth="10" markerHeight="7" refX="9" refY="3.5" orient="auto">
      <polygon points="0 0, 10 3.5, 0 7" fill="#94a3b8"/>
    </marker>
    <style>
      text{font-family:'JetBrains Mono','Noto Sans SC','Microsoft YaHei',sans-serif}
      .title{fill:#f8fafc;font-size:22px;font-weight:700}
      .note{fill:#94a3b8;font-size:12px}
      .label{fill:#f8fafc;font-size:14px;font-weight:700}
      .small{fill:#cbd5e1;font-size:11px}
      .box{rx:12;stroke-width:1.6}
      .client{fill:#083344;stroke:#22d3ee}
      .api{fill:#064e3b;stroke:#34d399}
      .data{fill:#4c1d95;stroke:#a78bfa}
      .provider{fill:#78350f;stroke:#fbbf24}
      .risk{fill:#881337;stroke:#fb7185}
      .doc{fill:#1e293b;stroke:#94a3b8}
      .line{stroke:#94a3b8;stroke-width:1.7;fill:none;marker-end:url(#arrow)}
      .dash{stroke-dasharray:6 5}
    </style>
  </defs>
  <rect width="1180" height="720" fill="#0f172a"/>
  <rect width="1180" height="720" fill="url(#grid)"/>
  <text x="34" y="42" class="title">SpellBean System Architecture</text>
  <text x="34" y="64" class="note">Current runtime scope: Android Java/XML, Spring Boot API, database, address records, and OSS-backed uploads.</text>

  <rect x="40" y="112" width="210" height="110" class="box client"/>
  <text x="145" y="145" text-anchor="middle" class="label">Android App</text>
  <text x="145" y="168" text-anchor="middle" class="small">Java Activity/Fragment + XML</text>
  <text x="145" y="188" text-anchor="middle" class="small">Retrofit / SharedPreferences</text>

  <rect x="330" y="112" width="250" height="110" class="box api"/>
  <text x="455" y="145" text-anchor="middle" class="label">Spring Boot API</text>
  <text x="455" y="168" text-anchor="middle" class="small">/api/v1 unified response</text>
  <text x="455" y="188" text-anchor="middle" class="small">Auth / Community / Commerce</text>

  <rect x="675" y="96" width="180" height="78" class="box data"/>
  <text x="765" y="128" text-anchor="middle" class="label">PostgreSQL</text>
  <text x="765" y="151" text-anchor="middle" class="small">JPA + Flyway</text>

  <rect x="675" y="200" width="180" height="78" class="box data"/>
  <text x="765" y="232" text-anchor="middle" class="label">Redis</text>
  <text x="765" y="255" text-anchor="middle" class="small">optional cache infrastructure</text>

  <rect x="940" y="96" width="190" height="78" class="box provider"/>
  <text x="1035" y="128" text-anchor="middle" class="label">OSS Provider</text>
  <text x="1035" y="151" text-anchor="middle" class="small">local | stub | aliyun</text>

  <rect x="940" y="220" width="190" height="78" class="box provider"/>
  <text x="1035" y="252" text-anchor="middle" class="label">Address Records</text>
  <text x="1035" y="275" text-anchor="middle" class="small">manual address management</text>

  <rect x="330" y="316" width="250" height="110" class="box api"/>
  <text x="455" y="350" text-anchor="middle" class="label">Business Modules</text>
  <text x="455" y="373" text-anchor="middle" class="small">User / Upload / Post</text>
  <text x="455" y="393" text-anchor="middle" class="small">Product / Order / Message</text>

  <rect x="675" y="330" width="180" height="78" class="box api"/>
  <text x="765" y="362" text-anchor="middle" class="label">Admin API</text>
  <text x="765" y="385" text-anchor="middle" class="small">audit / reports / operation</text>

  <rect x="40" y="500" width="250" height="96" class="box doc"/>
  <text x="165" y="532" text-anchor="middle" class="label">Open Design</text>
  <text x="165" y="555" text-anchor="middle" class="small">HTML prototypes express UI targets</text>
  <text x="165" y="575" text-anchor="middle" class="small">not fake runtime data</text>

  <rect x="330" y="500" width="250" height="96" class="box doc"/>
  <text x="455" y="532" text-anchor="middle" class="label">doc/development</text>
  <text x="455" y="555" text-anchor="middle" class="small">API / data model / verification</text>
  <text x="455" y="575" text-anchor="middle" class="small">current development source</text>

  <rect x="675" y="500" width="455" height="96" class="box risk"/>
  <text x="902" y="532" text-anchor="middle" class="label">Removed Runtime Scope</text>
  <text x="902" y="555" text-anchor="middle" class="small">Deleted feature surfaces are not active modules.</text>
  <text x="902" y="575" text-anchor="middle" class="small">OSS-backed image storage and address management remain.</text>

  <path d="M250 167 L330 167" class="line"/>
  <path d="M580 155 L675 135" class="line"/>
  <path d="M580 179 L675 239" class="line"/>
  <path d="M580 167 L940 135" class="line"/>
  <path d="M580 371 L940 259" class="line"/>
  <path d="M580 371 L675 369" class="line"/>
  <path d="M455 222 L455 316" class="line"/>
  <path d="M290 548 L330 548" class="line dash"/>
  <path d="M580 548 L675 548" class="line dash"/>
</svg>
